<?xml version="1.0" encoding="iso-8859-1"?>
<!-- Uploaded to: SVG Repo, www.svgrepo.com, Generator: SVG Repo Mixer Tools -->
<svg height="800px" width="800px" version="1.1" id="Layer_1" xmlns="http://www.w3.org/2000/svg" xmlns:xlink="http://www.w3.org/1999/xlink" 
	 viewBox="0 0 511.845 511.845" xml:space="preserve">
<path style="fill:#CBD0D8;" d="M360.906,435.351c0-85.333-45.393-232.796-101.407-232.796
	c-55.998,0-101.406,147.463-101.406,232.796c0,85.334,45.408,76.211,101.406,76.211
	C315.514,511.562,360.906,520.685,360.906,435.351z"/>
<polygon style="fill:#E5E8EC;" points="382.15,362.498 141.88,362.498 190.505,277.243 339.491,277.306 "/>
<path style="fill:#EC5564;" d="M505.612,226.532c0,84.076-111.795,77.937-249.689,77.937c-137.896,0-249.689,6.139-249.689-77.937
	C6.234,142.456,118.027,0,255.923,0C393.818,0,505.612,142.456,505.612,226.532z"/>
<g style="opacity:0.2;">
	<path style="fill:#FFFFFF;" d="M234.601,304.469c-13.527,0-26.789,0.047-39.738,0.078c16.229,0.047,33.083-0.047,50.406-0.078
		C241.724,304.469,238.178,304.469,234.601,304.469z"/>
	<path style="fill:#FFFFFF;" d="M255.923,0c-3.577,0-7.123,0.101-10.653,0.289c132.944,7.052,239.02,144.346,239.02,226.243
		c0,71.236-80.24,77.703-188.629,78.015c119.01,0.25,209.951-2.187,209.951-78.015C505.612,142.456,393.818,0,255.923,0z"/>
</g>
<g>
	<path style="fill:#E5E8EC;" d="M438.616,152.64c16.777,16.776,20.229,40.535,7.701,53.054c-12.527,12.527-36.27,9.075-53.062-7.701
		c-16.776-16.784-20.213-40.535-7.7-53.054C398.083,132.412,421.841,135.864,438.616,152.64z"/>
	<path style="fill:#E5E8EC;" d="M231.633,42.58c23.727-0.211,43.096,13.972,43.252,31.678c0.172,17.713-18.947,32.24-42.659,32.459
		c-23.727,0.211-43.096-13.972-43.252-31.678C188.803,57.326,207.906,42.799,231.633,42.58z"/>
	<path style="fill:#E5E8EC;" d="M94.722,146.369c22.306-19.213,49.75-23.907,61.31-10.497c11.559,13.417,2.858,39.871-19.432,59.083
		c-22.306,19.213-49.75,23.907-61.31,10.489C63.732,192.026,72.432,165.582,94.722,146.369z"/>
	<path style="fill:#E5E8EC;" d="M315.295,202.555c0-29.437-23.853-53.289-53.28-53.289c-29.429,0-53.296,23.852-53.296,53.289
		c0,29.429,23.868,53.281,53.296,53.281S315.295,231.984,315.295,202.555z"/>
	<path style="fill:#E5E8EC;" d="M347.27,96.056c0,5.889-4.765,10.661-10.653,10.661s-10.652-4.772-10.652-10.661
		c0-5.881,4.764-10.653,10.652-10.653S347.27,90.175,347.27,96.056z"/>
	<path style="fill:#E5E8EC;" d="M155.438,245.26c0,5.889-4.764,10.661-10.653,10.661s-10.668-4.772-10.668-10.661
		c0-5.881,4.78-10.653,10.668-10.653S155.438,239.38,155.438,245.26z"/>
	<path style="fill:#E5E8EC;" d="M379.244,245.26c0,5.889-4.765,10.661-10.653,10.661s-10.652-4.772-10.652-10.661
		c0-5.881,4.764-10.653,10.652-10.653S379.244,239.38,379.244,245.26z"/>
</g>
</svg>